<?xml version="1.0" encoding="utf-8"?>
<!-- Generator: Adobe Illustrator 27.5.0, SVG Export Plug-In . SVG Version: 6.00 Build 0)  -->
<svg version="1.1" xmlns="http://www.w3.org/2000/svg" xmlns:xlink="http://www.w3.org/1999/xlink" x="0px" y="0px"
	 viewBox="0 0 750 500" style="enable-background:new 0 0 750 500;" xml:space="preserve">
<g id="Background_Simple">
	<g>
		<path style="fill:#92E3A9;" d="M725.712,279.87c4.214-83.108-41.859-159.853-114.163-193.713
			c-25.258-11.828-53.94-21.791-80.187-22.731c-67.522-2.42-151.925,29.045-206.403,40.341S188.38,69.074,125.461,86.017
			C62.543,102.96-7.216,200.967,19.21,307.084C45.636,413.2,113.09,462.799,181.38,469.253s147.357-58.724,203.016-49.532
			c55.658,9.192,72.539,58.407,181.495,55.987c108.956-2.42,153.459-100.045,159.598-192.022
			C725.573,282.409,725.648,281.137,725.712,279.87z"/>
		<path style="opacity:0.8;fill:#FFFFFF;" d="M725.712,279.87c4.214-83.108-41.859-159.853-114.163-193.713
			c-25.258-11.828-53.94-21.791-80.187-22.731c-67.522-2.42-151.925,29.045-206.403,40.341S188.38,69.074,125.461,86.017
			C62.543,102.96-7.216,200.967,19.21,307.084C45.636,413.2,113.09,462.799,181.38,469.253s147.357-58.724,203.016-49.532
			c55.658,9.192,72.539,58.407,181.495,55.987c108.956-2.42,153.459-100.045,159.598-192.022
			C725.573,282.409,725.648,281.137,725.712,279.87z"/>
	</g>
</g>
<g id="Grass">
	<polygon style="fill:#337ab7;" points="723.719,460.937 723.719,450.099 721.035,450.826 706.283,446.826 691.527,450.826 
		676.774,446.826 662.023,450.826 647.271,446.826 632.514,450.826 617.76,446.826 603.009,450.826 588.254,446.826 
		573.499,450.826 558.746,446.826 543.991,450.826 529.235,446.826 514.482,450.826 499.726,446.826 484.971,450.826 
		470.216,446.826 455.459,450.826 440.704,446.826 425.946,450.826 411.191,446.826 396.433,450.826 381.677,446.826 
		366.92,450.826 352.163,446.826 337.406,450.826 322.649,446.826 307.89,450.826 293.132,446.826 278.375,450.826 263.617,446.826 
		248.859,450.826 234.101,446.826 219.341,450.826 204.584,446.826 189.826,450.826 175.069,446.826 160.313,450.826 
		145.555,446.826 130.794,450.826 116.036,446.826 101.276,450.826 86.516,446.826 71.754,450.826 56.996,446.826 42.234,450.826 
		27.475,446.826 21.295,448.5 21.295,460.937 	"/>
</g>
<g id="Clouds">
	<g>
		<g>
			<path style="fill:none;stroke:#263238;stroke-linecap:round;stroke-linejoin:round;stroke-miterlimit:10;" d="M81.08,95.492
				h65.639c0,0,1.353-4.963-2.256-7.218c-3.609-2.256-4.511,0.451-8.571-0.451c0,0-10.827-16.692-19.399-15.79
				c-1.365,0.144-2.501,0.425-3.459,0.816"/>
			<path style="fill:none;stroke:#263238;stroke-linecap:round;stroke-linejoin:round;stroke-miterlimit:10;" d="M109.27,75.896
				c-1.669,2.426-2.312,5.578-4.055,8.317c-3.158,4.962-8.12-2.256-13.083-0.451c-4.963,1.805-3.158,4.962-6.316,6.316
				s-10.376-5.865-13.083-3.609c-2.707,2.256-3.609,5.865-5.414,6.767c-1.804,0.902-5.413-2.256-7.218,0
				c-1.805,2.256-1.805,2.256-1.805,2.256H76.63"/>
		</g>
		<g>
			<path style="fill:none;stroke:#263238;stroke-linecap:round;stroke-linejoin:round;stroke-miterlimit:10;" d="M635.396,110.206
				c-1.593-0.622-3.253-1.029-4.914-0.425c-4.963,1.804-3.158,4.962-6.316,6.316s-10.376-5.865-13.083-3.609
				c-2.707,2.256-3.609,5.865-5.414,6.767c-1.805,0.902-5.414-2.256-7.218,0c-1.804,2.256-1.804,2.256-1.804,2.256h52.304"/>
			<path style="fill:none;stroke:#263238;stroke-linecap:round;stroke-linejoin:round;stroke-miterlimit:10;" d="M664.157,102.139
				c-3.004-2.545-6.298-4.404-9.314-4.087c-8.572,0.902-8.12,7.218-11.278,12.18c-0.525,0.826-1.101,1.314-1.717,1.563"/>
			<path style="fill:none;stroke:#263238;stroke-linecap:round;stroke-linejoin:round;stroke-miterlimit:10;" d="M653.958,121.511
				h31.11c0,0,1.353-4.962-2.256-7.218c-3.609-2.256-4.511,0.451-8.572-0.451c0,0-2.762-4.258-6.6-8.356"/>
		</g>
		<g>
			<path style="fill:none;stroke:#263238;stroke-linecap:round;stroke-linejoin:round;stroke-miterlimit:10;" d="M251.331,46.029
				c-2.183-0.622-4.417-0.825-6.651-0.013c-8.936,3.249-5.686,8.936-11.373,11.372c-5.686,2.437-18.683-10.56-23.557-6.498
				c-4.874,4.062-6.499,10.56-9.748,12.185c-3.249,1.625-9.748-4.062-12.997,0c-3.249,4.062-3.249,4.062-3.249,4.062h95.952"/>
			<path style="fill:none;stroke:#263238;stroke-linecap:round;stroke-linejoin:round;stroke-miterlimit:10;" d="M285.272,67.137
				h57.698c0,0,2.437-8.936-4.062-12.997c-6.498-4.062-8.123,0.812-15.434-0.812c0,0-19.496-30.056-34.93-28.431
				c-15.434,1.625-14.622,12.997-20.308,21.933c-3.147,4.945-7.289,3.173-11.875,1.154"/>
		</g>
	</g>
</g>
<g id="Buildings">
	<g>
		<polyline style="fill:none;stroke:#263238;stroke-miterlimit:10;" points="133.32,230.97 133.32,124.776 122.057,124.776 
			122.057,113.828 88.268,113.828 88.268,122.586 79.418,122.586 79.418,304.321 55.284,304.321 55.284,336.07 39.998,336.07 		"/>
		<polyline style="fill:none;stroke:#263238;stroke-miterlimit:10;" points="242.731,245.203 242.731,163.093 219.401,163.093 
			219.401,182.799 208.138,182.799 208.138,154.335 183.199,154.335 183.199,276.951 162.282,276.951 162.282,320.743 
			145.387,320.743 145.387,252.866 133.32,252.866 133.32,238.634 		"/>
		<polyline style="fill:none;stroke:#263238;stroke-miterlimit:10;" points="330.422,190.463 330.422,336.07 316.745,336.07 
			316.745,250.676 297.437,250.676 297.437,322.933 242.731,322.933 242.731,258.34 		"/>
		<polyline style="fill:none;stroke:#263238;stroke-miterlimit:10;" points="373.06,297.753 373.06,118.207 330.422,118.207 
			330.422,178.42 		"/>
		<polyline style="fill:none;stroke:#263238;stroke-miterlimit:10;" points="455.923,245.203 455.923,266.004 443.856,266.004 
			443.856,171.852 395.586,171.852 395.586,317.459 373.06,317.459 373.06,303.227 		"/>
		<polyline style="fill:none;stroke:#263238;stroke-miterlimit:10;" points="508.216,336.07 490.517,336.07 490.517,200.316 
			455.923,200.316 455.923,234.255 		"/>
	</g>
</g>
<g id="Trees">
	<g>
		<path style="fill:#337ab7;" d="M735.384,283.543c15.929,80.77-34.115,47.128-76.199,47.128c-42.084,0-95.41,27.392-76.199-47.128
			c10.977-42.58,34.115-69.201,76.199-69.201C701.269,214.342,728.667,249.482,735.384,283.543z"/>
		<path style="opacity:0.3;fill:#FFFFFF;" d="M735.384,283.543c15.929,80.77-34.115,47.128-76.199,47.128
			c-42.084,0-95.41,27.392-76.199-47.128c10.977-42.58,34.115-69.201,76.199-69.201
			C701.269,214.342,728.667,249.482,735.384,283.543z"/>
		<polygon style="fill:#A1A1A1;" points="635.168,323.341 655.691,339.003 653.589,460.02 665.99,460.02 663.608,313.318 
			692.958,281.035 663.253,306.419 662.173,258.351 658.932,291.297 651.293,285.756 634.628,262.132 645.34,283.606 
			610.864,269.693 646.001,289.548 657.564,297.562 656.232,332.522 		"/>
		<g>
			<path style="fill:#FFFFFF;" d="M646.745,244.873c0,0-1.124,5.204,1.212,9.521c2.336,4.318,5.529,7.186,5.529,7.186
				S655.804,253.367,646.745,244.873z"/>
			<path style="fill:#FFFFFF;" d="M603.121,290.84c0,0,4.013,3.499,8.922,3.54c4.908,0.042,8.963-1.368,8.963-1.368
				S614.934,287.013,603.121,290.84z"/>
			<path style="fill:#FFFFFF;" d="M597.008,312.408c0,0,4.871,2.151,9.57,0.733c4.7-1.417,8.153-3.966,8.153-3.966
				S607.154,305.247,597.008,312.408z"/>
			<path style="fill:#FFFFFF;" d="M626.098,314.654c0,0,5.324-0.071,9.008-3.315c3.684-3.244,5.764-6.999,5.764-6.999
				S632.345,303.921,626.098,314.654z"/>
			<path style="fill:#FFFFFF;" d="M613.825,250.255c0,0,1.207,5.186,5.164,8.091c3.957,2.905,8.07,4.134,8.07,4.134
				S625.645,254.062,613.825,250.255z"/>
			<path style="fill:#FFFFFF;" d="M700.622,246.411c0,0-5.272,0.747-8.513,4.433c-3.242,3.686-4.828,7.674-4.828,7.674
				S695.79,257.851,700.622,246.411z"/>
			<path style="fill:#FFFFFF;" d="M718.889,273.804c0,0-5.205-1.119-9.521,1.22c-4.315,2.339-7.181,5.535-7.181,5.535
				S710.403,282.871,718.889,273.804z"/>
			<path style="fill:#FFFFFF;" d="M717.102,304.921c0,0-3.753-3.777-8.646-4.168c-4.893-0.392-9.038,0.725-9.038,0.725
				S705.045,307.895,717.102,304.921z"/>
			<path style="fill:#FFFFFF;" d="M696.716,321.617c0,0-2.161-4.866-6.593-6.976c-4.432-2.11-8.703-2.544-8.703-2.544
				S684.391,320.099,696.716,321.617z"/>
			<path style="fill:#FFFFFF;" d="M685.987,271.128c0,0-5.272,0.747-8.514,4.433c-3.242,3.686-4.828,7.675-4.828,7.675
				S681.155,282.567,685.987,271.128z"/>
			<path style="fill:#FFFFFF;" d="M599.618,264.263c0,0,2.346,4.78,6.856,6.717c4.51,1.938,8.794,2.207,8.794,2.207
				S611.992,265.306,599.618,264.263z"/>
			<path style="fill:#FFFFFF;" d="M674.786,239.076c0,0-4.268,3.183-5.345,7.972c-1.077,4.789-0.556,9.05-0.556,9.05
				S676.032,251.431,674.786,239.076z"/>
			<path style="fill:#FFFFFF;" d="M658.69,224.014c0,0-2.423,4.741-1.274,9.514c1.148,4.773,3.498,8.365,3.498,8.365
				S665.265,234.548,658.69,224.014z"/>
			<path style="fill:#FFFFFF;" d="M623.847,229.077c0,0,0,5.324,3.195,9.051c3.194,3.727,6.921,5.857,6.921,5.857
				S634.496,235.466,623.847,229.077z"/>
		</g>
	</g>
	<g>
		<path style="fill:#337ab7;" d="M179.751,283.543c15.929,80.77-34.115,47.128-76.199,47.128s-95.41,27.392-76.199-47.128
			c10.977-42.58,34.115-69.201,76.199-69.201S173.033,249.482,179.751,283.543z"/>
		<path style="opacity:0.3;fill:#FFFFFF;" d="M179.751,283.543c15.929,80.77-34.115,47.128-76.199,47.128
			s-95.41,27.392-76.199-47.128c10.977-42.58,34.115-69.201,76.199-69.201S173.033,249.482,179.751,283.543z"/>
		<polygon style="fill:#A1A1A1;" points="79.534,323.341 100.058,339.003 97.956,460.02 110.356,460.02 107.974,313.318 
			137.324,281.035 107.619,306.419 106.539,258.351 103.298,291.297 95.66,285.756 78.994,262.132 89.707,283.606 55.23,269.693 
			90.367,289.548 101.931,297.562 100.598,332.522 		"/>
		<g>
			<path style="fill:#FFFFFF;" d="M91.111,244.873c0,0-1.124,5.204,1.212,9.521c2.336,4.318,5.529,7.186,5.529,7.186
				S100.171,253.367,91.111,244.873z"/>
			<path style="fill:#FFFFFF;" d="M47.487,290.84c0,0,4.013,3.499,8.922,3.54c4.908,0.042,8.963-1.368,8.963-1.368
				S59.301,287.013,47.487,290.84z"/>
			<path style="fill:#FFFFFF;" d="M41.375,312.408c0,0,4.871,2.151,9.57,0.733c4.7-1.417,8.153-3.966,8.153-3.966
				S51.52,305.247,41.375,312.408z"/>
			<path style="fill:#FFFFFF;" d="M70.465,314.654c0,0,5.324-0.071,9.008-3.315c3.684-3.244,5.764-6.999,5.764-6.999
				S76.712,303.921,70.465,314.654z"/>
			<path style="fill:#FFFFFF;" d="M58.191,250.255c0,0,1.207,5.186,5.164,8.091c3.957,2.905,8.07,4.134,8.07,4.134
				S70.011,254.062,58.191,250.255z"/>
			<path style="fill:#FFFFFF;" d="M144.989,246.411c0,0-5.272,0.747-8.514,4.433c-3.242,3.686-4.828,7.674-4.828,7.674
				S140.157,257.851,144.989,246.411z"/>
			<path style="fill:#FFFFFF;" d="M163.255,273.804c0,0-5.205-1.119-9.521,1.22c-4.315,2.339-7.181,5.535-7.181,5.535
				S154.77,282.871,163.255,273.804z"/>
			<path style="fill:#FFFFFF;" d="M161.469,304.921c0,0-3.753-3.777-8.646-4.168c-4.893-0.392-9.038,0.725-9.038,0.725
				S149.412,307.895,161.469,304.921z"/>
			<path style="fill:#FFFFFF;" d="M141.083,321.617c0,0-2.161-4.866-6.593-6.976c-4.432-2.11-8.703-2.544-8.703-2.544
				S128.758,320.099,141.083,321.617z"/>
			<path style="fill:#FFFFFF;" d="M130.354,271.128c0,0-5.272,0.747-8.514,4.433c-3.242,3.686-4.828,7.675-4.828,7.675
				S125.522,282.567,130.354,271.128z"/>
			<path style="fill:#FFFFFF;" d="M43.984,264.263c0,0,2.346,4.78,6.856,6.717c4.51,1.938,8.794,2.207,8.794,2.207
				S56.359,265.306,43.984,264.263z"/>
			<path style="fill:#FFFFFF;" d="M119.152,239.076c0,0-4.268,3.183-5.345,7.972c-1.077,4.789-0.556,9.05-0.556,9.05
				S120.398,251.431,119.152,239.076z"/>
			<path style="fill:#FFFFFF;" d="M103.056,224.014c0,0-2.423,4.741-1.274,9.514c1.148,4.773,3.498,8.365,3.498,8.365
				S109.631,234.548,103.056,224.014z"/>
			<path style="fill:#FFFFFF;" d="M68.214,229.077c0,0,0,5.324,3.195,9.051c3.194,3.727,6.921,5.857,6.921,5.857
				S78.863,235.466,68.214,229.077z"/>
		</g>
	</g>
	<g>
		<path style="fill:#337ab7;" d="M641.538,183.736c20.568,104.294-44.051,60.854-98.391,60.854
			c-54.34,0-123.197,35.37-98.391-60.854c14.174-54.981,44.051-89.355,98.391-89.355C597.487,94.38,632.864,139.755,641.538,183.736
			z"/>
		<path style="opacity:0.3;fill:#FFFFFF;" d="M641.538,183.736c20.568,104.294-44.051,60.854-98.391,60.854
			c-54.34,0-123.197,35.37-98.391-60.854c14.174-54.981,44.051-89.355,98.391-89.355C597.487,94.38,632.864,139.755,641.538,183.736
			z"/>
		<polygon style="fill:#A1A1A1;" points="512.134,235.123 538.635,255.348 535.92,459.887 551.932,459.887 548.857,222.182 
			586.755,180.497 548.398,213.274 547.004,151.207 542.819,193.747 532.956,186.593 511.437,156.088 525.269,183.816 
			480.752,165.852 526.122,191.489 541.053,201.837 539.332,246.979 		"/>
		<g>
			<path style="fill:#FFFFFF;" d="M527.083,133.803c0,0-1.452,6.72,1.564,12.295c3.016,5.575,7.139,9.279,7.139,9.279
				S538.781,144.77,527.083,133.803z"/>
			<path style="fill:#FFFFFF;" d="M470.753,193.158c0,0,5.182,4.518,11.52,4.571c6.338,0.053,11.574-1.766,11.574-1.766
				S486.008,188.216,470.753,193.158z"/>
			<path style="fill:#FFFFFF;" d="M462.861,221.007c0,0,6.289,2.777,12.358,0.947c6.069-1.83,10.528-5.122,10.528-5.122
				S475.961,211.76,462.861,221.007z"/>
			<path style="fill:#FFFFFF;" d="M500.423,223.907c0,0,6.874-0.092,11.631-4.28c4.757-4.189,7.443-9.037,7.443-9.037
				S508.489,210.048,500.423,223.907z"/>
			<path style="fill:#FFFFFF;" d="M484.575,140.752c0,0,1.559,6.696,6.668,10.447c5.109,3.751,10.42,5.338,10.42,5.338
				S499.838,145.669,484.575,140.752z"/>
			<path style="fill:#FFFFFF;" d="M596.652,135.789c0,0-6.807,0.965-10.993,5.724c-4.186,4.759-6.234,9.91-6.234,9.91
				S590.412,150.56,596.652,135.789z"/>
			<path style="fill:#FFFFFF;" d="M620.238,171.16c0,0-6.721-1.446-12.293,1.575c-5.572,3.021-9.273,7.147-9.273,7.147
				S609.281,182.867,620.238,171.16z"/>
			<path style="fill:#FFFFFF;" d="M617.931,211.339c0,0-4.846-4.876-11.164-5.382c-6.318-0.506-11.67,0.936-11.67,0.936
				S602.363,215.18,617.931,211.339z"/>
			<path style="fill:#FFFFFF;" d="M591.608,232.898c0,0-2.79-6.283-8.513-9.008c-5.723-2.724-11.237-3.285-11.237-3.285
				S575.693,230.939,591.608,232.898z"/>
			<path style="fill:#FFFFFF;" d="M577.755,167.704c0,0-6.807,0.964-10.993,5.724c-4.186,4.759-6.234,9.91-6.234,9.91
				S571.515,182.475,577.755,167.704z"/>
			<path style="fill:#FFFFFF;" d="M466.23,158.841c0,0,3.03,6.171,8.853,8.674c5.824,2.502,11.355,2.85,11.355,2.85
				S482.208,160.188,466.23,158.841z"/>
			<path style="fill:#FFFFFF;" d="M563.291,126.317c0,0-5.511,4.11-6.902,10.294c-1.391,6.184-0.718,11.686-0.718,11.686
				S564.899,142.271,563.291,126.317z"/>
			<path style="fill:#FFFFFF;" d="M542.507,106.868c0,0-3.128,6.122-1.645,12.284c1.483,6.162,4.517,10.801,4.517,10.801
				S550.996,120.471,542.507,106.868z"/>
			<path style="fill:#FFFFFF;" d="M497.517,113.407c0,0,0,6.875,4.125,11.687c4.125,4.812,8.937,7.562,8.937,7.562
				S511.267,121.657,497.517,113.407z"/>
		</g>
	</g>
</g>
<g id="Plants">
	<g>
		<g>
			<polyline style="fill:#FFFFFF;stroke:#263238;stroke-miterlimit:10;" points="709.262,418.505 723.492,418.505 723.492,427.336 
				709.262,427.336 			"/>
			<rect x="263.452" y="418.505" style="fill:#FFFFFF;stroke:#263238;stroke-miterlimit:10;" width="213.66" height="8.83"/>
			<polyline style="fill:#FFFFFF;stroke:#263238;stroke-miterlimit:10;" points="31.292,418.505 20.822,418.505 20.822,427.336 
				31.292,427.336 			"/>
			<rect x="40.542" y="418.505" style="fill:#FFFFFF;stroke:#263238;stroke-miterlimit:10;" width="213.66" height="8.83"/>
			<rect x="486.362" y="418.505" style="fill:#FFFFFF;stroke:#263238;stroke-miterlimit:10;" width="213.65" height="8.83"/>
		</g>
		<g>
			<polyline style="fill:#FFFFFF;stroke:#263238;stroke-miterlimit:10;" points="709.262,394.211 723.492,394.211 723.492,403.041 
				709.262,403.041 			"/>
			<rect x="263.452" y="394.211" style="fill:#FFFFFF;stroke:#263238;stroke-miterlimit:10;" width="213.66" height="8.83"/>
			<polyline style="fill:#FFFFFF;stroke:#263238;stroke-miterlimit:10;" points="31.292,394.211 20.822,394.211 20.822,403.041 
				31.292,403.041 			"/>
			<rect x="40.542" y="394.211" style="fill:#FFFFFF;stroke:#263238;stroke-miterlimit:10;" width="213.66" height="8.83"/>
			<rect x="486.362" y="394.211" style="fill:#FFFFFF;stroke:#263238;stroke-miterlimit:10;" width="213.65" height="8.83"/>
		</g>
		<rect x="700.012" y="387.855" style="fill:#FFFFFF;stroke:#263238;stroke-miterlimit:10;" width="9.25" height="71.9"/>
		<rect x="477.112" y="387.855" style="fill:#FFFFFF;stroke:#263238;stroke-miterlimit:10;" width="9.25" height="71.9"/>
		<rect x="254.202" y="387.855" style="fill:#FFFFFF;stroke:#263238;stroke-miterlimit:10;" width="9.25" height="71.9"/>
		<rect x="31.292" y="387.855" style="fill:#FFFFFF;stroke:#263238;stroke-miterlimit:10;" width="9.25" height="71.9"/>
	</g>
</g>
<g id="Car">
	<g>
		<path style="fill:#263238;stroke:#263238;stroke-miterlimit:10;" d="M68.05,417.927c0,0,13.726,9.151,14.946,9.456
			c1.22,0.305,16.166,0,16.166,0v-4.27l130.55-6.71l389.514-4.88c0,0,0.61-22.267-9.761-39.958
			c-10.371-17.691-29.282-31.112-50.024-32.942c-20.741-1.83-46.058,4.575-58.564,15.556
			c-12.506,10.981-24.097,53.989-24.097,53.989l-239.443,3.05c0,0-6.406-34.467-28.977-53.074
			c-22.572-18.606-54.294-22.877-82.356-14.336c-28.062,8.541-36.298,63.445-36.298,63.445L68.05,417.927z"/>
		<path style="fill:#337ab7;stroke:#263238;stroke-miterlimit:10;" d="M684.628,356.22c-4.158-8.316-4.99-23.286-4.99-29.107
			c0-5.821,0.832-13.722,0.832-13.722s4.158-5.821,0-13.722c-4.158-7.9-8.316-8.732-8.316-8.732l-34.097-36.176
			c0,0,10.395-6.237,9.564-7.9c-0.832-1.663-3.742-1.663-3.742-1.663l-49.898-2.911c0,0-76.51-2.911-117.26-3.742
			c-40.75-0.832-121.002-1.663-121.002-1.663s-9.148,0.416-16.217,2.911c-7.069,2.495-109.775,58.214-116.012,60.293
			c-6.237,2.079-88.153,5.406-105.617,8.316c-17.464,2.911-34.928,9.979-39.087,14.969c-4.158,4.99-14.969,43.245-15.801,48.65
			c-0.832,5.406-1.663,38.255-1.247,41.582c0.416,3.327,4.158,4.99,4.158,4.99h30.77c0,0,0.438-2.188,1.262-5.711
			c-0.053-1.072-0.082-2.151-0.082-3.236c0-35.456,28.743-64.199,64.199-64.199c35.456,0,64.199,28.743,64.199,64.199
			c0,3.253-0.247,6.448-0.714,9.572c0.024,0.126,0.039,0.208,0.039,0.208h258.637c0,0,0.544-3.841,1.878-9.658
			c0-0.041-0.003-0.081-0.003-0.121c0-35.704,28.943-64.647,64.647-64.647c35.703,0,64.647,28.943,64.647,64.647
			c0,1.326-0.053,2.64-0.131,3.946c6.462-0.086,35.756-0.841,52.337-7.473c18.712-7.485,22.87-13.306,22.87-24.949
			C690.449,369.526,688.786,364.536,684.628,356.22z"/>
		<path style="opacity:0.24;" d="M192.858,329.957c0,0,154.105-6.942,239.488-12.495c85.383-5.553,115.926-7.636,115.926-7.636
			l-338.06,24.296L192.858,329.957z"/>
		<path style="fill:#525252;stroke:#263238;stroke-miterlimit:10;" d="M690.432,379.334c-0.003-0.197-0.007-0.391-0.012-0.584
			c-0.005-0.206-0.012-0.402-0.018-0.603c-0.006-0.194-0.011-0.392-0.018-0.582c-0.011-0.307-0.024-0.611-0.039-0.908
			c-0.014-0.282-0.029-0.558-0.046-0.833c-0.004-0.067-0.007-0.138-0.011-0.205c-0.021-0.323-0.044-0.639-0.069-0.952
			c-0.01-0.13-0.021-0.259-0.032-0.387c-0.096-1.114-0.218-2.167-0.369-3.169c-6.323,1.789-23.249,5.639-26.059,5.639
			c-3.355,0-14.946,8.236-16.471,9.151c-1.326,0.796-17.165,1.821-21.286,2.076c-4.652-16.188-14.375-30.22-27.349-40.274
			c-2.286-1.923-4.683-3.658-7.184-5.115c-0.931-0.542-1.984-1.102-3.131-1.667c-11.164-6.123-23.979-9.611-37.611-9.611
			c-38.743,0-70.896,28.133-77.196,65.081l-8.341,0.491c0,0-11.896-3.965-17.081-5.186c-5.185-1.22-161.357,4.27-168.677,4.27
			c-7.321,0-32.027,6.405-32.027,6.405l-11.303-0.565c-3.918-37.443-35.576-66.63-74.056-66.63
			c-36.604,0-67.018,26.418-73.27,61.222c-1.658,5.422-2.422,9.024-2.422,9.024H67.745l-5.681-17.314c0,0.001,0,0.003,0,0.004
			c0,0.003,0,0.005,0,0.008c-0.009,0.248-0.017,0.498-0.025,0.747c0,0.016-0.001,0.033-0.002,0.049
			c-0.007,0.222-0.015,0.444-0.022,0.667c-0.011,0.335-0.022,0.67-0.032,1.006c-0.009,0.279-0.017,0.559-0.026,0.839
			c-0.008,0.249-0.015,0.498-0.023,0.747c-0.01,0.333-0.019,0.665-0.029,0.997c-0.009,0.31-0.017,0.618-0.026,0.927
			c-0.007,0.248-0.013,0.495-0.02,0.742c-0.008,0.292-0.015,0.583-0.023,0.874c-0.002,0.098-0.005,0.196-0.007,0.294
			c-0.006,0.229-0.012,0.458-0.017,0.686c-0.005,0.212-0.01,0.424-0.015,0.635c-0.01,0.414-0.019,0.826-0.028,1.234
			c-0.004,0.161-0.007,0.32-0.01,0.479c-0.006,0.283-0.012,0.563-0.017,0.842c-0.001,0.069-0.003,0.138-0.004,0.207
			c-0.004,0.186-0.007,0.372-0.011,0.556c-0.007,0.364-0.014,0.724-0.02,1.08c-0.003,0.164-0.006,0.327-0.009,0.489
			c-0.007,0.41-0.014,0.816-0.02,1.213c-0.002,0.126-0.004,0.251-0.006,0.376c-0.005,0.357-0.01,0.708-0.014,1.052
			c-0.001,0.11-0.003,0.221-0.004,0.33c-0.004,0.366-0.008,0.723-0.011,1.073c-0.001,0.11-0.002,0.221-0.003,0.33
			c-0.001,0.157-0.002,0.304-0.003,0.458c-0.001,0.214-0.003,0.433-0.005,0.639c0,0.075-0.001,0.148-0.001,0.223
			c0,0.091,0,0.176-0.001,0.266c-0.001,0.266-0.002,0.532-0.002,0.782c0,0.012,0,0.025,0,0.038c0,0.191,0.001,0.364,0.001,0.546
			c0,0.141,0,0.289,0.001,0.425c0,0.069,0.001,0.138,0.001,0.206c0.001,0.118,0.002,0.223,0.003,0.336
			c0.001,0.171,0.003,0.348,0.004,0.508c0.001,0.052,0.001,0.102,0.002,0.152c0.004,0.269,0.008,0.526,0.013,0.759
			c0,0.003,0,0.005,0,0.008c0.005,0.235,0.012,0.444,0.019,0.64c0.001,0.035,0.003,0.072,0.004,0.106
			c0.007,0.182,0.015,0.345,0.025,0.487c0.002,0.026,0.004,0.049,0.005,0.074c0.01,0.14,0.02,0.265,0.032,0.359
			c0.416,3.327,4.158,4.99,4.158,4.99h22.234h8.536c0,0,0.438-2.188,1.262-5.711c-0.053-1.072-0.082-2.151-0.082-3.236
			c0-35.456,28.743-64.199,64.199-64.199c35.456,0,64.199,28.743,64.199,64.199c0,3.253-0.247,6.448-0.714,9.572
			c0.024,0.126,0.039,0.208,0.039,0.208h10.286h237.167h11.184c0,0,0.544-3.841,1.878-9.658c0-0.041-0.003-0.081-0.003-0.121
			c0-35.704,28.943-64.647,64.647-64.647c35.703,0,64.647,28.943,64.647,64.647c0,1.326-0.053,2.64-0.131,3.946
			c2.271-0.03,7.367-0.144,13.734-0.566l0,0c0.692-0.046,1.401-0.096,2.121-0.149c0.08-0.006,0.161-0.012,0.241-0.018
			c1.494-0.112,3.04-0.24,4.627-0.389c0.024-0.002,0.048-0.005,0.072-0.007c0.724-0.068,1.458-0.141,2.196-0.217
			c0.16-0.017,0.32-0.034,0.48-0.051c0.646-0.068,1.296-0.14,1.948-0.215c0.15-0.017,0.3-0.034,0.451-0.052
			c1.567-0.183,3.151-0.387,4.737-0.613c0.209-0.03,0.417-0.061,0.626-0.091c0.587-0.086,1.174-0.175,1.76-0.267
			c0.228-0.036,0.457-0.072,0.685-0.108c0.672-0.109,1.344-0.222,2.012-0.339c0.111-0.02,0.222-0.037,0.332-0.057
			c0.769-0.137,1.534-0.281,2.295-0.43c0.203-0.04,0.405-0.082,0.607-0.123c0.561-0.113,1.12-0.229,1.674-0.349
			c0.245-0.053,0.49-0.107,0.733-0.161c0.555-0.124,1.104-0.252,1.649-0.384c0.194-0.047,0.391-0.092,0.584-0.14
			c0.721-0.179,1.434-0.364,2.135-0.556c0.141-0.039,0.277-0.08,0.416-0.119c0.562-0.158,1.117-0.319,1.663-0.486
			c0.22-0.067,0.437-0.136,0.654-0.205c0.482-0.153,0.957-0.31,1.425-0.47c0.198-0.068,0.398-0.135,0.594-0.204
			c0.643-0.228,1.275-0.462,1.885-0.706c18.712-7.485,22.87-13.306,22.87-24.949C690.449,380.535,690.442,379.93,690.432,379.334z"
			/>
		<path style="fill:#263238;stroke:#263238;stroke-miterlimit:10;" d="M323.285,248.524h-1.24
			c-31.407,16.369-93.739,49.955-98.556,51.561c-1.115,0.372-4.661,0.784-9.816,1.226c6.857,4.722,20.37,7.09,26.033,7.09
			c5.821,0,269.448-11.227,269.448-11.227s8.732-6.653,8.732-8.732s-34.097-39.918-34.097-39.918H323.285z"/>
		<path style="fill:#525252;stroke:#263238;stroke-miterlimit:10;" d="M319.701,249.747c-32.058,16.759-91.512,48.771-96.212,50.337
			c-1.115,0.372-4.661,0.784-9.816,1.226c3.906,2.69,9.969,4.613,15.513,5.773l94.099-58.56L319.701,249.747z"/>
		<path style="fill:#525252;stroke:#263238;stroke-miterlimit:10;" d="M339.501,252.682c0,0-67.778,40.334-70.689,42.829
			s-1.663,4.99,0.832,5.821s108.528-2.495,108.528-2.495l7.069-45.74L339.501,252.682z"/>
		<polygon style="fill:#525252;stroke:#263238;stroke-miterlimit:10;" points="406.032,253.929 404.784,296.758 493.353,294.679 
			499.59,278.878 480.047,252.682 		"/>
		<path style="fill:#525252;stroke:#263238;stroke-miterlimit:10;" d="M284.24,285.259c0,0-1.297,0.778-7.004,2.335
			c-5.707,1.556-12.97,4.669-13.748,8.301c-0.778,3.632-0.519,8.56,3.113,9.079c3.632,0.519,22.049,1.816,27.497-0.778
			c5.447-2.594,4.669-7.782,3.891-12.192c-0.778-4.41-3.372-5.707-6.485-6.485C288.39,284.741,284.24,285.259,284.24,285.259z"/>
		<ellipse style="fill:none;stroke:#263238;stroke-miterlimit:10;" cx="356.224" cy="314.572" rx="12.322" ry="3.372"/>
		<ellipse style="fill:none;stroke:#263238;stroke-miterlimit:10;" cx="503.304" cy="309.124" rx="12.322" ry="3.372"/>
		<path style="fill:none;stroke:#263238;stroke-miterlimit:10;" d="M526.618,280.508c6.116,6.81,10.668,12.567,10.862,14.8
			c0.61,7.016-5.185,37.213-5.185,37.213"/>
		<path style="fill:none;stroke:#263238;stroke-miterlimit:10;" d="M493.252,246.505c0,0,15.743,15.082,28.445,28.646"/>
		<path style="fill:none;stroke:#263238;stroke-miterlimit:10;" d="M621.599,340.794c9.351-6.691,25.994-19.56,25.994-19.56"/>
		<path style="fill:none;stroke:#263238;stroke-miterlimit:10;" d="M601.23,346.552c0,0,11.896-1.22,14.336-1.83
			c0.438-0.109,1.748-0.935,3.604-2.215"/>
		<line style="fill:none;stroke:#263238;stroke-miterlimit:10;" x1="387.994" y1="383.468" x2="387.409" y2="413.047"/>
		<line style="fill:none;stroke:#263238;stroke-miterlimit:10;" x1="389.276" y1="318.603" x2="388.084" y2="378.885"/>
		<line style="fill:none;stroke:#263238;stroke-miterlimit:10;" x1="389.544" y1="305.069" x2="389.359" y2="314.409"/>
		<line style="fill:none;stroke:#263238;stroke-miterlimit:10;" x1="472.51" y1="399.626" x2="248.624" y2="406.031"/>
		<path style="fill:none;stroke:#263238;stroke-miterlimit:10;" d="M238.185,331.245c1.646,22.822,6.473,85.157,6.473,85.157"/>
		<path style="fill:none;stroke:#263238;stroke-miterlimit:10;" d="M240.083,310.864c0,0-2.44,9.456-2.44,12.201
			c0,0.289,0.078,1.548,0.216,3.571"/>
		<path style="fill:#263238;stroke:#263238;stroke-miterlimit:10;" d="M78.408,323.89c-3.246,4.913-9.662,25.931-13.125,38.718
			c3.27-5.611,10.187-16.987,14.053-19.716c5.185-3.66,44.228-10.676,47.584-11.896c3.355-1.22,9.456-8.236,10.371-10.981
			C138.072,317.669,91.878,322.448,78.408,323.89z"/>
		<path style="fill:#FFFFFF;stroke:#263238;stroke-miterlimit:10;" d="M137.29,320.015c0.782-2.345-45.412,2.434-58.882,3.875
			c0,0-5.173,15.646,0.928,19.002c5.185-3.66,44.228-10.676,47.584-11.896C130.275,329.776,136.375,322.76,137.29,320.015z"/>
		<path style="fill:#263238;stroke:#263238;stroke-miterlimit:10;" d="M77.201,361.803l0.915,22.572h-4.27
			c0,0-11.94-21.267-8.563-21.767C68.66,362.108,77.201,361.803,77.201,361.803z"/>
		<path style="fill:#263238;stroke:#263238;stroke-miterlimit:10;" d="M519.178,252.3c0,0,61.615,41.788,64.665,41.788
			c3.05,0,88.31-3.151,88.31-3.151l-34.097-36.176L519.178,252.3z"/>
		<path style="fill:#525252;stroke:#263238;stroke-miterlimit:10;" d="M541.14,259.315c0,0,36.908,29.282,43.313,30.197
			c6.405,0.915,43.618-1.22,43.618-1.22s-22.267-26.537-25.012-27.147C600.315,260.535,541.14,259.315,541.14,259.315z"/>
		<path style="fill:#969696;stroke:#263238;stroke-miterlimit:10;" d="M674.435,302.934c0,0-47.279,1.525-47.279,2.745
			s4.88,7.321,8.236,8.846c3.355,1.525,8.541,0.915,9.456,1.83c0.915,0.915,14.031,14.641,16.471,16.471
			c2.44,1.83,9.761,4.575,10.981,4.575C672.3,337.401,675.045,304.459,674.435,302.934z"/>
		<g>
			<circle style="fill:#263238;stroke:#263238;stroke-miterlimit:10;" cx="162.044" cy="409.644" r="50.376"/>
			<path style="fill:#FFFFFF;stroke:#263238;stroke-miterlimit:10;" d="M162.044,372.294c-20.628,0-37.351,16.722-37.351,37.351
				c0,20.628,16.722,37.351,37.351,37.351c20.628,0,37.351-16.722,37.351-37.351C199.395,389.016,182.673,372.294,162.044,372.294z
				 M192.278,399.232l-24.729,6.781l13.48-22.098C186.185,387.726,190.149,393.05,192.278,399.232z M158.262,441.391
				c-6.578-0.776-12.541-3.546-17.274-7.691L159,415.874L158.262,441.391z M165.005,415.984l19.574,16.343
				c-4.479,4.45-10.27,7.575-16.74,8.76L165.005,415.984z M170.303,378.75l-8.213,23.165l-8.566-23.09
				c2.714-0.749,5.568-1.157,8.52-1.157C164.901,377.667,167.668,378.047,170.303,378.75z M142.83,384.085l13.136,20.847
				l-23.457-7.554C134.714,392.074,138.304,387.492,142.83,384.085z M130.083,409.041l24.571,2.578l-19.862,14.754
				c-2.994-4.867-4.724-10.595-4.724-16.729C130.067,409.442,130.079,409.243,130.083,409.041z M190.29,424.637l-20.775-12.863
				l24.482-3.109c0.01,0.327,0.025,0.652,0.025,0.981C194.021,415.063,192.669,420.164,190.29,424.637z"/>
			<circle style="fill:#FFFFFF;stroke:#263238;stroke-miterlimit:10;" cx="162.044" cy="409.644" r="9.876"/>
		</g>
		<g>
			<circle style="fill:#263238;stroke:#263238;stroke-miterlimit:10;" cx="550.727" cy="409.644" r="50.376"/>
			<path style="fill:#FFFFFF;stroke:#263238;stroke-miterlimit:10;" d="M550.727,372.294c-20.628,0-37.351,16.722-37.351,37.351
				c0,20.628,16.722,37.351,37.351,37.351c20.628,0,37.351-16.722,37.351-37.351C588.078,389.016,571.355,372.294,550.727,372.294z
				 M580.96,399.232l-24.729,6.781l13.48-22.098C574.867,387.726,578.832,393.05,580.96,399.232z M546.945,441.391
				c-6.578-0.776-12.541-3.546-17.274-7.691l18.011-17.826L546.945,441.391z M553.688,415.984l19.574,16.343
				c-4.479,4.45-10.27,7.575-16.74,8.76L553.688,415.984z M558.986,378.75l-8.213,23.165l-8.566-23.09
				c2.714-0.749,5.568-1.157,8.52-1.157C553.583,377.667,556.351,378.047,558.986,378.75z M531.512,384.085l13.136,20.847
				l-23.457-7.554C523.397,392.074,526.986,387.492,531.512,384.085z M518.765,409.041l24.571,2.578l-19.862,14.754
				c-2.994-4.867-4.724-10.595-4.724-16.729C518.75,409.442,518.761,409.243,518.765,409.041z M578.972,424.637l-20.776-12.863
				l24.482-3.109c0.01,0.327,0.025,0.652,0.025,0.981C582.704,415.063,581.351,420.164,578.972,424.637z"/>
			<circle style="fill:#FFFFFF;stroke:#263238;stroke-miterlimit:10;" cx="550.727" cy="409.644" r="9.876"/>
		</g>
		<path style="fill:#263238;stroke:#263238;stroke-miterlimit:10;" d="M364.053,236.809c0,0,13.97-3.967,20.586-5.228
			c6.616-1.26,102.077-1.89,141.143,0s55.134,5.356,58.6,6.301c3.466,0.945,9.597,4.405,9.597,4.405l-30.754-1.373
			c0,0,0.993-3.032-1.527-3.347c-2.52-0.315-65.531-1.89-68.366-1.89c-2.835,0-2.938,2.997-2.938,2.997l-13.674-0.129l-5.126-3.498
			c0,0-76.558-0.63-78.448,0.315c-1.89,0.945-1.685,1.6-1.685,1.6L364.053,236.809z"/>
	</g>
</g>
<g id="Floor">
	
		<line style="fill:none;stroke:#263238;stroke-linecap:round;stroke-linejoin:round;stroke-miterlimit:10;" x1="20.821" y1="460.02" x2="723.494" y2="460.02"/>
</g>
</svg>
